<svg width="91" height="46" xmlns="http://www.w3.org/2000/svg"><g fill="#000" fill-rule="nonzero"><path d="M19.079 45.705c-4.074 0-7.389-3.315-7.389-7.389s3.315-7.389 7.389-7.389 7.389 3.315 7.389 7.389-3.314 7.389-7.389 7.389zm0-13.047a5.665 5.665 0 0 0-5.658 5.657 5.664 5.664 0 0 0 5.658 5.658 5.664 5.664 0 0 0 5.658-5.658 5.664 5.664 0 0 0-5.658-5.657z"/><path d="M19.079 42.991a4.682 4.682 0 0 1-4.676-4.676 4.682 4.682 0 0 1 4.676-4.676 4.682 4.682 0 0 1 4.676 4.676 4.681 4.681 0 0 1-4.676 4.676zm0-7.966a3.295 3.295 0 0 0-3.291 3.291 3.294 3.294 0 0 0 3.291 3.291 3.294 3.294 0 0 0 3.291-3.291 3.294 3.294 0 0 0-3.291-3.291zM71.262 45.705c-4.074 0-7.389-3.315-7.389-7.389s3.315-7.389 7.389-7.389 7.389 3.315 7.389 7.389-3.315 7.389-7.389 7.389zm0-13.047a5.664 5.664 0 0 0-5.657 5.657 5.664 5.664 0 0 0 5.657 5.658 5.664 5.664 0 0 0 5.658-5.658 5.664 5.664 0 0 0-5.658-5.657z"/><path d="M71.262 42.991a4.682 4.682 0 0 1-4.676-4.676 4.682 4.682 0 0 1 4.676-4.676 4.682 4.682 0 0 1 4.676 4.676 4.682 4.682 0 0 1-4.676 4.676zm0-7.966a3.295 3.295 0 0 0-3.291 3.291 3.294 3.294 0 0 0 3.291 3.291 3.294 3.294 0 0 0 3.291-3.291 3.295 3.295 0 0 0-3.291-3.291zM63.069 42.357H27.278a.867.867 0 0 1-.818-1.15l.235-.677h-1.232a.866.866 0 0 1 0-1.732h2.45a.864.864 0 0 1 .818 1.15l-.235.677h33.141l-.546-1.041a.867.867 0 0 1 .766-1.269h2.944a.866.866 0 0 1 0 1.732h-1.512l.546 1.041a.867.867 0 0 1-.766 1.269z"/><path d="M77.785 40.047a.867.867 0 0 1-.246-1.697l7.5-2.227c1.322-5.41.216-9.279-.208-10.46l-22.033-5.072H46.035l-13.814 5.594a.848.848 0 0 1-.216.056L12.07 28.769 4.641 31.48l-.703 2.062a.882.882 0 0 1-.207.333l-1.103 1.103v.623h.981c.145 0 .289.037.416.107l2.75 1.507h5.788a.866.866 0 0 1 0 1.732h-6.01a.864.864 0 0 1-.416-.107l-2.75-1.507H1.761a.866.866 0 0 1-.866-.866V34.62c0-.23.091-.45.254-.612l1.214-1.214.772-2.263a.868.868 0 0 1 .523-.534l7.909-2.887a.938.938 0 0 1 .188-.046l19.92-2.526 13.866-5.615a.862.862 0 0 1 .325-.063h17.03c.065 0 .131.007.194.022l22.572 5.196c.261.06.479.237.591.48.095.205 2.303 5.103.34 12.479a.865.865 0 0 1-.59.607l-7.971 2.367a.844.844 0 0 1-.247.036z"/><path d="M35.532 29.021a.693.693 0 0 1-.333-1.3l11.267-6.177a.693.693 0 0 1 .333-.085h11.362c.383 0 .693.31.693.693v5.542a.692.692 0 0 1-.673.692l-22.629.635h-.02zm11.444-6.177l-8.593 4.711 19.085-.536v-4.175H46.976z"/><path d="M42 28.732a.606.606 0 0 1-.319-1.122l5.482-3.377a.607.607 0 0 1 .318-.09h6.004c.218 0 .419.117.527.307l1.731 3.043a.605.605 0 1 1-1.053.599l-1.557-2.737h-5.48l-5.336 3.287a.598.598 0 0 1-.317.09zM80.965 27.693H63.242a.866.866 0 0 1-.866-.866v-7.101a.866.866 0 0 1 1.732 0v6.235h15.739l-.527-2.045a.867.867 0 0 1 1.677-.433l.806 3.127a.867.867 0 0 1-.838 1.083z"/><path d="M68.381 27.434a.605.605 0 0 1-.503-.268l-1.554-2.309a.608.608 0 0 1-.103-.338v-3.887a.606.606 0 1 1 1.212 0v3.702l1.451 2.156a.606.606 0 0 1-.503.944zM71.263 27.434a.605.605 0 0 1-.503-.268l-1.554-2.309a.608.608 0 0 1-.103-.338v-3.224a.606.606 0 1 1 1.212 0v3.039l1.451 2.156a.606.606 0 0 1-.503.944zM73.976 27.434a.605.605 0 0 1-.503-.268l-1.554-2.309a.608.608 0 0 1-.103-.338V21.92a.606.606 0 1 1 1.212 0v2.414l1.451 2.156a.606.606 0 0 1-.503.944zM64.519 20.966a.865.865 0 0 1-.612-1.478L78.263 5.132a.865.865 0 1 1 1.224 1.225L65.131 20.713a.86.86 0 0 1-.612.253z"/><path d="M78.203 6.622a.347.347 0 0 1-.245-.592l1.5-1.5c.083-.114.361-.452.785-.528.273-.049.55.021.802.204a.33.33 0 0 1 .064.06c.084.1.37.368.663.386.151.01.297-.05.441-.181l1.492-1.606a.279.279 0 0 1 .044-.04c.001-.001.315-.253.326-.638.009-.335-.204-.698-.634-1.078-.103-.093-.997-.85-1.891-.007a.347.347 0 0 1-.476-.504C82.18-.445 83.408.14 83.904.595c.591.522.883 1.071.862 1.625-.023.63-.453 1.036-.57 1.135l-1.485 1.6-.018.018c-.287.267-.621.395-.97.372-.566-.038-.989-.457-1.115-.597-.114-.074-.192-.071-.242-.062-.169.031-.324.217-.353.262a.384.384 0 0 1-.044.054l-1.521 1.521a.356.356 0 0 1-.245.099zM85.923 37.02a.867.867 0 0 1-.443-1.611l2.49-1.476a.869.869 0 0 1 .442-.121h.416l.275-1.721-.957-.958a.867.867 0 0 1-.244-.485l-.462-3.117a.868.868 0 0 1 .192-.682l.626-.75.26-4.064-1.336-3.916-9.741 5.606a.866.866 0 1 1-.864-1.502l10.652-6.13a.867.867 0 0 1 1.252.471l1.732 5.074a.866.866 0 0 1 .045.335l-.289 4.518a.867.867 0 0 1-.2.5l-.559.669.363 2.45 1.068 1.068a.866.866 0 0 1 .243.749l-.462 2.886a.866.866 0 0 1-.855.729h-.917l-2.285 1.355a.855.855 0 0 1-.442.123zM73.807 23.133a1.472 1.472 0 0 1-1.427-1.839l.908-3.539a1.471 1.471 0 1 1 2.852.732l-.908 3.539a1.473 1.473 0 0 1-1.425 1.107zM62.434 17.822l-.029-.001-4.156-.347a.346.346 0 1 1 .058-.69l4.157.347a.346.346 0 0 1-.03.691zM62.087 19.146h-3.233a.346.346 0 0 1 0-.692h3.233a.346.346 0 0 1 0 .692z"/><path d="M60.702 18.973a.346.346 0 0 1-.346-.346v-.978a.346.346 0 0 1 .692 0v.978c0 .19-.155.346-.346.346zM53.022 35.025h-2.021a.693.693 0 1 1 0-1.386h2.021a.693.693 0 1 1 0 1.386z"/><circle cx="56.21" cy="29.813" r="1"/><path d="M51.581 39.787H34.955a.779.779 0 0 1-.76-.609l-3.06-13.624a.78.78 0 0 1 1.521-.341l2.923 13.015h15.644l8.47-9.899v-8.602a.78.78 0 0 1 1.558 0v8.89a.78.78 0 0 1-.187.507l-8.89 10.391a.782.782 0 0 1-.593.272zM10.304 35.775H8.688a.693.693 0 1 1 0-1.386h1.616a.693.693 0 1 1 0 1.386zM7.014 36.526a.693.693 0 0 1-.693-.693v-.981a.693.693 0 1 1 1.386 0v.981a.693.693 0 0 1-.693.693zM14.593 33.697H3.117a.433.433 0 0 1 0-.866h11.476a.433.433 0 0 1 0 .866z"/><path d="M33.665 33.697H23.207a.433.433 0 0 1 0-.866h10.458a.433.433 0 0 1 0 .866zM67.135 33.697h-10.64a.433.433 0 0 1 0-.866h10.64a.433.433 0 0 1 0 .866zM86.416 33.697H75.389a.433.433 0 0 1 0-.866h11.027a.433.433 0 0 1 0 .866z"/><path d="M56.916 33.322H33.334a.433.433 0 0 1 0-.866h23.582a.433.433 0 0 1 0 .866z"/></g></svg>