<svg width="60" height="60" xmlns="http://www.w3.org/2000/svg"><g fill="#000" fill-rule="nonzero"><path d="M59 0H1a1 1 0 0 0-1 1v45a1 1 0 0 0 1 1h32v8a1 1 0 0 0 1.78.63l3.22-4 3.22 4A1 1 0 0 0 42 56a1 1 0 0 0 .33-.06A1 1 0 0 0 43 55v-6h5v10a1 1 0 0 0 1 1h6a1 1 0 0 0 1-1V47h3a1 1 0 0 0 1-1V1a1 1 0 0 0-1-1zM2 2h27v43H2V2zm29 43V2h2v43h-2zm10 7.15l-2.22-2.77a1 1 0 0 0-1.56 0L35 52.15V2h6v50.15zm9-22.91l.39-.78a3.69 3.69 0 0 0 3.22 0l.39.78V52h-4V29.24zm1.28-2.56l.72-1.44.72 1.44a1.89 1.89 0 0 1-1.44 0zM50 58v-4h4v4h-4zm8-13h-2V29a1 1 0 0 0-.11-.45l-3-6a1 1 0 0 0-1.78 0l-3 6A1 1 0 0 0 48 29v18h-5V22h5a1 1 0 0 0 0-2h-5v-2h12a1 1 0 0 0 0-2H43v-2h12a1 1 0 0 0 0-2H43v-2h12a1 1 0 0 0 0-2H43V2h15v43z"/><path d="M5 6h5a1 1 0 0 0 0-2H5a1 1 0 1 0 0 2zM5 10h21a1 1 0 0 0 0-2H5a1 1 0 1 0 0 2zM26 12H5a1 1 0 0 0 0 2h21a1 1 0 0 0 0-2zM26 16H5a1 1 0 0 0 0 2h21a1 1 0 0 0 0-2zM26 20H5a1 1 0 0 0 0 2h21a1 1 0 0 0 0-2zM26 24H5a1 1 0 0 0 0 2h21a1 1 0 0 0 0-2zM26 28H5a1 1 0 0 0 0 2h21a1 1 0 0 0 0-2zM26 32H5a1 1 0 0 0 0 2h21a1 1 0 0 0 0-2zM21 36H5a1 1 0 0 0 0 2h16a1 1 0 0 0 0-2z"/></g></svg>