<svg width="1017" height="581" xmlns="http://www.w3.org/2000/svg"><g transform="translate(5 5)" stroke="#000" stroke-width="10" fill="none" fill-rule="evenodd"><path d="M888.063 521h-773.5V29c0-16.016 12.984-29 29-29h715.5c16.017 0 29 12.984 29 29v492z"/><path d="M156.813 44h689v434h-689zM1006.5 521.5V554c-22.79 17.28-88.67 16.33-88.67 16.33l-844 .34C12.5 572 0 554 0 554v-32.5h421.5v6.25a9 9 0 0 0 9 9h136a9 9 0 0 0 9-9v-6.25h431z"/><path d="M575.5 521.5v6.25a9 9 0 0 1-9 9h-136a9 9 0 0 1-9-9v-6.25h154z"/><path d="M575.5 521v6.75a9 9 0 0 1-9 9h-136a9 9 0 0 1-9-9V521h154z"/><circle cx="501.313" cy="25.458" r="4.125"/><circle cx="501.313" cy="25.333" r="1.833"/></g></svg>