<svg width="64" height="64" xmlns="http://www.w3.org/2000/svg"><g fill="#000" fill-rule="nonzero"><path d="M7.7 61.4h48.6v2H7.7z"/><path d="M28.4 60.8h7.1V64h-7.1zM62 1.8c.1 0 .3.1.3.3v13c0 .1-.1.3-.3.3H2c-.1 0-.3-.1-.3-.3V2c0-.1.1-.3.3-.3h60v.1zM62 0H2C.9 0 0 .9 0 2v13c0 1.1.9 2 2 2h60c1.1 0 2-.9 2-2V2c0-1.1-.9-2-2-2z"/><path d="M4.6 5.2h26.9v2.1H4.6zM4.6 9.8h26.9v2.1H4.6zM34.9 3.8h1.6v9.5h-1.6zM38.5 3.8h1.6v9.5h-1.6zM42.1 3.8h1.6v9.5h-1.6zM45.7 3.8h1.6v9.5h-1.6zM52.8 7.8c-1.2 0-2.2-1-2.2-2.2 0-1.2 1-2.2 2.2-2.2 1.2 0 2.2 1 2.2 2.2 0 1.2-1 2.2-2.2 2.2zm0-3.3c-.6 0-1.2.5-1.2 1.2 0 .6.5 1.2 1.2 1.2.6 0 1.2-.5 1.2-1.2-.1-.7-.6-1.2-1.2-1.2zM57.7 7.8c-1.2 0-2.2-1-2.2-2.2 0-1.2 1-2.2 2.2-2.2 1.2 0 2.2 1 2.2 2.2 0 1.2-1 2.2-2.2 2.2zm0-3.3c-.6 0-1.2.5-1.2 1.2 0 .6.5 1.2 1.2 1.2.6 0 1.2-.5 1.2-1.2s-.5-1.2-1.2-1.2zM62 40.2c.1 0 .3.1.3.3v13c0 .1-.1.3-.3.3H2c-.1 0-.3-.1-.3-.3v-13c0-.1.1-.3.3-.3h60zm0-1.8H2c-1.1 0-2 .9-2 2v13c0 1.1.9 2 2 2h60c1.1 0 2-.9 2-2v-13c0-1-.9-2-2-2z"/><path d="M4.6 43.6h26.9v2.1H4.6zM4.6 48.2h26.9v2.1H4.6zM34.9 42.2h1.6v9.5h-1.6zM38.5 42.2h1.6v9.5h-1.6zM42.1 42.2h1.6v9.5h-1.6zM45.7 42.2h1.6v9.5h-1.6zM52.8 46.3c-1.2 0-2.2-1-2.2-2.2 0-1.2 1-2.2 2.2-2.2 1.2 0 2.2 1 2.2 2.2-.1 1.2-1 2.2-2.2 2.2zm0-3.4c-.6 0-1.2.5-1.2 1.2 0 .6.5 1.2 1.2 1.2.6 0 1.2-.5 1.2-1.2-.1-.6-.6-1.2-1.2-1.2zM57.7 46.3c-1.2 0-2.2-1-2.2-2.2 0-1.2 1-2.2 2.2-2.2 1.2 0 2.2 1 2.2 2.2 0 1.2-1 2.2-2.2 2.2zm0-3.4c-.6 0-1.2.5-1.2 1.2 0 .6.5 1.2 1.2 1.2.6 0 1.2-.5 1.2-1.2 0-.6-.5-1.2-1.2-1.2zM62 21c.1 0 .3.1.3.3v13c0 .1-.1.3-.3.3H2c-.1 0-.3-.1-.3-.3v-13c.1-.2.2-.3.3-.3h60zm0-1.8H2c-1.1 0-2 .9-2 2v13c0 1.1.9 2 2 2h60c1.1 0 2-.9 2-2v-13c0-1.1-.9-2-2-2z"/><path d="M4.6 24.4h26.9v2.1H4.6zM4.6 29h26.9v2.1H4.6zM34.9 23h1.6v9.5h-1.6zM38.5 23h1.6v9.5h-1.6zM42.1 23h1.6v9.5h-1.6zM45.7 23h1.6v9.5h-1.6zM52.8 27.1c-1.2 0-2.2-1-2.2-2.2 0-1.2 1-2.2 2.2-2.2 1.2 0 2.2 1 2.2 2.2-.1 1.2-1 2.2-2.2 2.2zm0-3.4c-.6 0-1.2.5-1.2 1.2 0 .6.5 1.2 1.2 1.2.6 0 1.2-.5 1.2-1.2-.1-.7-.6-1.2-1.2-1.2zM57.7 27.1c-1.2 0-2.2-1-2.2-2.2 0-1.2 1-2.2 2.2-2.2 1.2 0 2.2 1 2.2 2.2 0 1.2-1 2.2-2.2 2.2zm0-3.4c-.6 0-1.2.5-1.2 1.2 0 .6.5 1.2 1.2 1.2.6 0 1.2-.5 1.2-1.2s-.5-1.2-1.2-1.2zM30.5 54.1h3v7.5h-3z"/></g></svg>